<?xml version="1.0" encoding="UTF-8" standalone="no"?>
<!-- Created with Inkscape (http://www.inkscape.org/) -->

<svg
   width="48"
   height="48"
   viewBox="0 0 12.7 12.7"
   version="1.1"
   id="svg1"
   xml:space="preserve"
   inkscape:export-filename="ビットマップ.png"
   inkscape:export-xdpi="96"
   inkscape:export-ydpi="96"
   inkscape:version="1.3.2 (091e20e, 2023-11-25, custom)"
   sodipodi:docname="icon.svg"
   xmlns:inkscape="http://www.inkscape.org/namespaces/inkscape"
   xmlns:sodipodi="http://sodipodi.sourceforge.net/DTD/sodipodi-0.dtd"
   xmlns="http://www.w3.org/2000/svg"
   xmlns:svg="http://www.w3.org/2000/svg"><sodipodi:namedview
     id="namedview1"
     pagecolor="#ffffff"
     bordercolor="#000000"
     borderopacity="0.25"
     inkscape:showpageshadow="2"
     inkscape:pageopacity="0.0"
     inkscape:pagecheckerboard="0"
     inkscape:deskcolor="#d1d1d1"
     inkscape:document-units="mm"
     inkscape:zoom="8.2457351"
     inkscape:cx="28.499582"
     inkscape:cy="37.716467"
     inkscape:window-width="1232"
     inkscape:window-height="960"
     inkscape:window-x="556"
     inkscape:window-y="220"
     inkscape:window-maximized="0"
     inkscape:current-layer="layer1" /><defs
     id="defs1" /><g
     inkscape:label="Layer 1"
     inkscape:groupmode="layer"
     id="layer1"><g
       id="g6"
       transform="matrix(1.1311194,0,0,1.0742792,-0.92306519,-0.28137708)"><rect
         style="fill:none;fill-opacity:1;stroke-width:2.64583;stroke-dasharray:none"
         id="rect1"
         width="6.9308558"
         height="9.305316"
         x="2.9520311"
         y="1.9894123" /><rect
         style="fill:#ffffff;fill-opacity:1;stroke:#ff4690;stroke-width:0.468369;stroke-dasharray:none;stroke-opacity:1"
         id="rect2"
         width="6.510344"
         height="7.3767004"
         x="2.7130649"
         y="2.1515372" /><rect
         style="fill:#ffffff;fill-opacity:1;stroke:#ff4690;stroke-width:0.429389;stroke-dasharray:none;stroke-opacity:1"
         id="rect2-3"
         width="5.7150545"
         height="7.0627203"
         x="4.451313"
         y="3.8258836" /><rect
         style="fill:#ffffff;fill-opacity:1;stroke:#ff4690;stroke-width:0.490672;stroke-dasharray:none;stroke-opacity:1"
         id="rect3"
         width="3.3755736"
         height="1.4182487"
         x="4.2804499"
         y="1.2963314" /><path
         style="fill:#ca0960;fill-opacity:1"
         d="M 8.6434058,5.5612152 C 8.6998848,5.4058228 8.7897524,5.2528041 8.8431124,5.2211737 8.8964724,5.1895437 8.9854143,5.2070967 9.040761,5.2601807 9.109514,5.3261237 9.083492,5.4329028 8.958613,5.5972646 8.8580848,5.7295763 8.7229333,5.8391623 8.6582761,5.840789 8.5701971,5.843009 8.5664681,5.772897 8.6434058,5.5612152 Z"
         id="path6" /><path
         style="fill:#ca0960;fill-opacity:1"
         d="m 8.9230301,6.0388174 c 0,-0.048009 0.1178653,-0.1762118 0.2619229,-0.2848959 0.1440576,-0.1086842 0.3068929,-0.1832303 0.3618561,-0.165658 0.054963,0.017572 0.1167895,0.080451 0.1373916,0.1397313 0.020602,0.05928 -0.1255467,0.1731059 -0.324775,0.2529464 -0.1992283,0.079841 -0.3789198,0.1451645 -0.3993145,0.1451645 -0.020395,0 -0.037081,-0.03928 -0.037081,-0.087288 z"
         id="path5" /><path
         style="fill:#ff4690;fill-opacity:1"
         d="M 6.6423874,9.5687239 C 6.4404834,9.499609 6.1654103,9.3740077 6.031114,9.2896099 5.8968176,9.2052122 5.7255159,9.0200854 5.6504435,8.878217 5.5753711,8.7363487 5.4821632,8.4109978 5.4433148,8.1552151 5.4044663,7.8994324 5.2883354,7.4849148 5.185246,7.2340649 5.0821566,6.983215 4.9978107,6.7362802 4.9978107,6.6853211 c 0,-0.050959 0.1085879,-0.1401068 0.2413064,-0.1981058 0.1922828,-0.084029 0.2904512,-0.074568 0.4832099,0.04657 0.1330469,0.083613 0.2703077,0.2378588 0.305024,0.3427695 0.034716,0.1049106 0.1106525,0.1907466 0.1687471,0.1907466 0.071927,0 0.085069,-0.236423 0.041193,-0.7410375 C 6.1816562,5.6864235 6.1977434,5.5557492 6.3550931,5.3693729 6.472768,5.2299904 6.5954133,5.1748974 6.7012823,5.2138626 c 0.090174,0.033189 0.2074491,0.1700703 0.2606108,0.3041812 0.053162,0.1341108 0.096658,0.4740267 0.096658,0.7553685 0,0.2813418 0.087989,0.623836 0.1367029,0.623836 0.048715,0 0.1325637,-0.403201 0.2451574,-0.75874 C 7.5530051,5.7829694 7.7097426,5.4406397 7.788717,5.3777757 7.867691,5.3149117 8.0179756,5.2895567 8.1226817,5.3214307 8.2273879,5.3533047 8.335042,5.4600197 8.361913,5.5585749 8.388784,5.6571299 8.30649,6.0239979 8.1790373,6.3738368 8.0515848,6.7236754 7.9530114,7.1270297 7.9795943,7.1525261 8.0061772,7.1780225 8.2323906,6.925259 8.462682,6.7084831 8.6929734,6.4917071 8.9481681,6.3143449 9.0297815,6.3143449 c 0.081613,0 0.2013783,0.050825 0.2661444,0.1129435 0.064766,0.062119 0.1177566,0.198314 0.1177566,0.3026557 0,0.1043417 -0.2070916,0.3913716 -0.4602036,0.6378442 -0.253112,0.2464727 -0.4393615,0.4681222 -0.413888,0.4925546 0.025474,0.024432 0.2315506,-6.733e-4 0.4579488,-0.05579 0.2263983,-0.055117 0.478886,-0.075461 0.5610837,-0.045208 0.082198,0.030253 0.1494505,0.1344781 0.1494505,0.2316112 0,0.097133 -0.077278,0.2424829 -0.1717283,0.3229995 -0.094451,0.080517 -0.3368739,0.211801 -0.5387184,0.291743 C 8.7508461,8.7034381 8.5766582,8.8596162 8.4658429,9.0825002 8.3704567,9.2743513 8.167469,9.4747494 7.9838934,9.5583012 7.8094581,9.6376929 7.5188564,9.7007907 7.3381119,9.6985186 7.1573675,9.6962464 6.8442914,9.6378388 6.6423874,9.5687239 Z"
         id="path3"
         sodipodi:nodetypes="sssssssssssssssssssssssssssssssssssss" /><path
         style="fill:#ff4690;fill-opacity:1;stroke:#ca0960;stroke-width:0.264583;stroke-linecap:round;stroke-dasharray:none;stroke-opacity:1"
         d="m 6.3051533,7.5244705 c 0,0 0.4464463,0.052406 0.6550196,0.4800895 0.2085732,0.4276831 0.1001711,0.6899567 0.1001711,0.6899567"
         id="path4"
         sodipodi:nodetypes="czc" /></g></g></svg>
